<?xml version="1.0" encoding="iso-8859-1"?>
<!-- Generator: Adobe Illustrator 22.1.0, SVG Export Plug-In . SVG Version: 6.00 Build 0)  -->
<svg xmlns="http://www.w3.org/2000/svg" xmlns:xlink="http://www.w3.org/1999/xlink" version="1.1" id="Layer_3" x="0px" y="0px" viewBox="0 0 64 64" style="enable-background:new 0 0 64 64;" xml:space="preserve" width="512" height="512">
<g>
	<g>
		<path style="fill:#CCCCCC;" d="M49,31L49,31c0-2.761,2.239-5,5-5h0h0c-2.761,0-5-2.239-5-5v0v0c0,2.761-2.239,5-5,5h0h0    C46.761,26,49,28.239,49,31L49,31z"/>
	</g>
	<g>
		<path style="fill:#CCCCCC;" d="M57,12L57,12c0-2.761,2.239-5,5-5h0h0c-2.761,0-5-2.239-5-5v0v0c0,2.761-2.239,5-5,5h0h0    C54.761,7,57,9.239,57,12L57,12z"/>
	</g>
	<g>
		<path style="fill:#DA8906;" d="M60,62H50c-1.105,0-2-0.895-2-2v0c0-1.105,0.895-2,2-2h10c1.105,0,2,0.895,2,2v0    C62,61.105,61.105,62,60,62z"/>
	</g>
	<g>
		<path style="fill:#F1C006;" d="M59,60c0-1.105-0.895-2-2-2h-7c-1.105,0-2,0.895-2,2c0,1.105,0.895,2,2,2h7    C58.105,62,59,61.105,59,60z"/>
	</g>
	<g>
		<path style="fill:#DA8906;" d="M60,58H50c-1.105,0-2-0.895-2-2v0c0-1.105,0.895-2,2-2h10c1.105,0,2,0.895,2,2v0    C62,57.105,61.105,58,60,58z"/>
	</g>
	<g>
		<path style="fill:#F1C006;" d="M59,56c0-1.105-0.895-2-2-2h-7c-1.105,0-2,0.895-2,2c0,1.105,0.895,2,2,2h7    C58.105,58,59,57.105,59,56z"/>
	</g>
	<g>
		<path style="fill:#DA8906;" d="M60,54H50c-1.105,0-2-0.895-2-2v0c0-1.105,0.895-2,2-2h10c1.105,0,2,0.895,2,2v0    C62,53.105,61.105,54,60,54z"/>
	</g>
	<g>
		<path style="fill:#F1C006;" d="M59,52c0-1.105-0.895-2-2-2h-7c-1.105,0-2,0.895-2,2c0,1.105,0.895,2,2,2h7    C58.105,54,59,53.105,59,52z"/>
	</g>
	<g>
		<path style="fill:#DA8906;" d="M60,50H50c-1.105,0-2-0.895-2-2v0c0-1.105,0.895-2,2-2h10c1.105,0,2,0.895,2,2v0    C62,49.105,61.105,50,60,50z"/>
	</g>
	<g>
		<path style="fill:#F1C006;" d="M59,48c0-1.105-0.895-2-2-2h-7c-1.105,0-2,0.895-2,2c0,1.105,0.895,2,2,2h7    C58.105,50,59,49.105,59,48z"/>
	</g>
	<g>
		<path style="fill:#DA8906;" d="M60,46H50c-1.105,0-2-0.895-2-2v0c0-1.105,0.895-2,2-2h10c1.105,0,2,0.895,2,2v0    C62,45.105,61.105,46,60,46z"/>
	</g>
	<g>
		<path style="fill:#F1C006;" d="M59,44c0-1.105-0.895-2-2-2h-7c-1.105,0-2,0.895-2,2c0,1.105,0.895,2,2,2h7    C58.105,46,59,45.105,59,44z"/>
	</g>
	<g>
		<path style="fill:#DA8906;" d="M60,42H50c-1.105,0-2-0.895-2-2v0c0-1.105,0.895-2,2-2h10c1.105,0,2,0.895,2,2v0    C62,41.105,61.105,42,60,42z"/>
	</g>
	<g>
		<path style="fill:#F1C006;" d="M59,40c0-1.105-0.895-2-2-2h-7c-1.105,0-2,0.895-2,2c0,1.105,0.895,2,2,2h7    C58.105,42,59,41.105,59,40z"/>
	</g>
	<g>
		<path style="fill:#F25E09;" d="M28,16L38,5l-2.179-2.179C35.295,2.295,34.582,2,33.839,2H33.5c-0.937,0-1.812,0.468-2.332,1.248    l-0.336,0.504C30.312,4.532,29.437,5,28.5,5h0c-0.937,0-1.812-0.468-2.332-1.248l-0.336-0.504C25.312,2.468,24.437,2,23.5,2h-1    c-0.937,0-1.812,0.468-2.332,1.248l-0.336,0.504C19.312,4.532,18.437,5,17.5,5h0c-0.937,0-1.812-0.468-2.332-1.248l-0.336-0.504    C14.312,2.468,13.437,2,12.5,2h-0.099c-0.882,0-1.713,0.415-2.242,1.121L8,6l10,10H28z"/>
	</g>
	<g>
		<path style="fill:#FC860A;" d="M31.821,2.821c-0.048-0.048-0.105-0.084-0.156-0.128c-0.186,0.162-0.356,0.345-0.497,0.555    l-0.336,0.504C30.312,4.532,29.437,5,28.5,5c-0.765,0-1.477-0.324-2-0.863C25.977,4.676,25.265,5,24.5,5    c-0.937,0-1.812-0.468-2.332-1.248l-0.336-0.504C21.614,2.92,21.322,2.663,21,2.457c-0.322,0.206-0.614,0.464-0.832,0.792    l-0.336,0.504C19.312,4.532,18.437,5,17.5,5c-0.765,0-1.477-0.324-2-0.863C14.977,4.676,14.265,5,13.5,5    c-0.937,0-1.812-0.468-2.332-1.248l-0.336-0.504c-0.109-0.163-0.241-0.303-0.378-0.438c-0.102,0.1-0.208,0.195-0.295,0.311L8,6    l10,10h6L34,5L31.821,2.821z"/>
	</g>
	<g>
		<path style="fill:#ED1C24;" d="M28,20H18c-1.105,0-2-0.895-2-2v0c0-1.105,0.895-2,2-2h10c1.105,0,2,0.895,2,2v0    C30,19.105,29.105,20,28,20z"/>
	</g>
	<g>
		<path style="fill:#F15A24;" d="M26.5,18c0-1.105-0.895-2-2-2h-7c-1.105,0-2,0.895-2,2c0,1.105,0.895,2,2,2h7    C25.605,20,26.5,19.105,26.5,18z"/>
	</g>
	<g>
		<path style="fill:#F25E09;" d="M44,38v12.783c0,2.102-0.591,4.162-1.705,5.945l0,0C40.245,60.008,36.651,62,32.783,62H13.217    c-3.868,0-7.462-1.992-9.512-5.272l0,0C2.591,54.945,2,52.885,2,50.783V38c0-3.895,1.263-7.684,3.6-10.8l0,0    C8.999,22.667,14.334,20,20,20h6c5.666,0,11.001,2.667,14.4,7.2l0,0C42.737,30.316,44,34.105,44,38z"/>
	</g>
	<g>
		<path style="fill:#FC860A;" d="M38.295,56.728C39.409,54.945,40,52.885,40,50.783V38c0-3.895-1.263-7.684-3.6-10.8v0    C33.001,22.667,27.666,20,22,20h-2c-5.666,0-11.001,2.667-14.4,7.2v0C3.263,30.316,2,34.105,2,38v12.783    c0,2.102,0.591,4.162,1.705,5.945C5.755,60.008,9.349,62,13.217,62h15.566C32.651,62,36.245,60.008,38.295,56.728z"/>
	</g>
	<g>
		<circle style="fill:#486B03;" cx="23" cy="41" r="17"/>
	</g>
	<g>
		<ellipse style="fill:#A1BF34;" cx="21" cy="41" rx="15" ry="16.872"/>
	</g>
	<g>
		<path d="M32.783,63H13.217c-4.24,0-8.113-2.146-10.36-5.742C1.642,55.314,1,53.075,1,50.783V38c0-4.084,1.35-8.133,3.8-11.4    C8.369,21.841,14.051,19,20,19h6c5.949,0,11.631,2.841,15.2,7.6C43.65,29.867,45,33.916,45,38v12.783    c0,2.292-0.642,4.531-1.857,6.475C40.896,60.854,37.023,63,32.783,63z M20,21c-5.322,0-10.406,2.542-13.6,6.8    C4.208,30.724,3,34.346,3,38v12.783c0,1.917,0.537,3.789,1.553,5.414C6.432,59.205,9.671,61,13.217,61h19.566    c3.546,0,6.785-1.795,8.664-4.803C42.463,54.572,43,52.7,43,50.783V38c0-3.654-1.208-7.276-3.4-10.2    C36.406,23.542,31.322,21,26,21H20z"/>
	</g>
	<g>
		<path d="M17.293,16.707l-10-10C6.941,6.355,6.901,5.798,7.2,5.4l2.159-2.879C10.074,1.568,11.211,1,12.401,1    c1.373,0,2.556,0.633,3.263,1.693L16,3.197C16.335,3.7,16.896,4,17.5,4s1.165-0.3,1.5-0.803l0.336-0.504    C20.043,1.633,21.226,1,22.5,1h1c1.274,0,2.457,0.633,3.164,1.693L27,3.197C27.335,3.7,27.896,4,28.5,4s1.165-0.3,1.5-0.803    l0.336-0.504C31.043,1.633,32.226,1,33.5,1h0.339c1.016,0,1.971,0.396,2.689,1.114l2.179,2.179    c0.377,0.377,0.392,0.985,0.033,1.38l-10,11l-1.479-1.346l9.358-10.294l-1.505-1.505C34.773,3.188,34.32,3,33.839,3H33.5    c-0.604,0-1.165,0.3-1.5,0.803l-0.336,0.504C30.957,5.367,29.774,6,28.5,6s-2.457-0.633-3.164-1.693L25,3.803    C24.665,3.3,24.104,3,23.5,3h-1c-0.604,0-1.165,0.3-1.5,0.803l-0.336,0.504C19.957,5.367,18.774,6,17.5,6    s-2.457-0.633-3.164-1.693L14,3.803C13.665,3.3,13.104,3,12.5,3c-0.663,0-1.202,0.27-1.541,0.721L9.32,5.906l9.387,9.387    L17.293,16.707z"/>
	</g>
	<g>
		<path d="M28,21H18c-1.654,0-3-1.346-3-3s1.346-3,3-3h10c1.654,0,3,1.346,3,3S29.654,21,28,21z M18,17c-0.551,0-1,0.449-1,1    s0.449,1,1,1h10c0.551,0,1-0.449,1-1s-0.449-1-1-1H18z"/>
	</g>
	<g>
		<path d="M25,52H15v-2h10c2.206,0,4-1.794,4-4s-1.794-4-4-4h-4c-3.309,0-6-2.691-6-6s2.691-6,6-6h10v2H21c-2.206,0-4,1.794-4,4    s1.794,4,4,4h4c3.309,0,6,2.691,6,6S28.309,52,25,52z"/>
	</g>
	<g>
		<rect x="22" y="27" width="2" height="28"/>
	</g>
	<g>
		<path d="M60,63H50c-1.654,0-3-1.346-3-3s1.346-3,3-3h10c1.654,0,3,1.346,3,3S61.654,63,60,63z M50,59c-0.551,0-1,0.448-1,1    s0.449,1,1,1h10c0.551,0,1-0.448,1-1s-0.449-1-1-1H50z"/>
	</g>
	<g>
		<path d="M60,59H50c-1.654,0-3-1.346-3-3s1.346-3,3-3h10c1.654,0,3,1.346,3,3S61.654,59,60,59z M50,55c-0.551,0-1,0.448-1,1    s0.449,1,1,1h10c0.551,0,1-0.448,1-1s-0.449-1-1-1H50z"/>
	</g>
	<g>
		<path d="M60,55H50c-1.654,0-3-1.346-3-3s1.346-3,3-3h10c1.654,0,3,1.346,3,3S61.654,55,60,55z M50,51c-0.551,0-1,0.448-1,1    s0.449,1,1,1h10c0.551,0,1-0.448,1-1s-0.449-1-1-1H50z"/>
	</g>
	<g>
		<path d="M60,51H50c-1.654,0-3-1.346-3-3s1.346-3,3-3h10c1.654,0,3,1.346,3,3S61.654,51,60,51z M50,47c-0.551,0-1,0.448-1,1    s0.449,1,1,1h10c0.551,0,1-0.448,1-1s-0.449-1-1-1H50z"/>
	</g>
	<g>
		<path d="M60,47H50c-1.654,0-3-1.346-3-3s1.346-3,3-3h10c1.654,0,3,1.346,3,3S61.654,47,60,47z M50,43c-0.551,0-1,0.448-1,1    s0.449,1,1,1h10c0.551,0,1-0.448,1-1s-0.449-1-1-1H50z"/>
	</g>
	<g>
		<path d="M60,43H50c-1.654,0-3-1.346-3-3s1.346-3,3-3h10c1.654,0,3,1.346,3,3S61.654,43,60,43z M50,39c-0.551,0-1,0.448-1,1    s0.449,1,1,1h10c0.551,0,1-0.448,1-1s-0.449-1-1-1H50z"/>
	</g>
	<g>
		<rect x="22" y="7" width="2" height="9"/>
	</g>
	<g>
		<rect x="22.877" y="11" transform="matrix(0.2427 -0.9701 0.9701 0.2427 8.8071 35.2813)" width="8.246" height="2"/>
	</g>
	<g>
		<rect x="18" y="7.877" transform="matrix(0.9701 -0.2425 0.2425 0.9701 -2.3431 4.9665)" width="2" height="8.246"/>
	</g>
	<g>
		<path d="M23,59c-9.925,0-18-8.075-18-18c0-9.925,8.075-18,18-18s18,8.075,18,18C41,50.925,32.925,59,23,59z M23,25    c-8.822,0-16,7.178-16,16s7.178,16,16,16s16-7.178,16-16S31.822,25,23,25z"/>
	</g>
	<g>
		<path d="M49,32c-0.552,0-1-0.448-1-1c0-2.206-1.794-4-4-4c-0.552,0-1-0.448-1-1s0.448-1,1-1c2.206,0,4-1.794,4-4    c0-0.552,0.448-1,1-1s1,0.448,1,1c0,2.206,1.794,4,4,4c0.552,0,1,0.448,1,1s-0.448,1-1,1c-2.206,0-4,1.794-4,4    C50,31.552,49.552,32,49,32z M47.313,26c0.668,0.444,1.242,1.019,1.687,1.687c0.444-0.668,1.019-1.242,1.687-1.687    c-0.668-0.444-1.242-1.019-1.687-1.687C48.556,24.981,47.981,25.556,47.313,26z"/>
	</g>
	<g>
		<path d="M57,13c-0.552,0-1-0.448-1-1c0-2.206-1.794-4-4-4c-0.552,0-1-0.448-1-1s0.448-1,1-1c2.206,0,4-1.794,4-4    c0-0.552,0.448-1,1-1s1,0.448,1,1c0,2.206,1.794,4,4,4c0.552,0,1,0.448,1,1s-0.448,1-1,1c-2.206,0-4,1.794-4,4    C58,12.552,57.552,13,57,13z M55.313,7C55.981,7.444,56.556,8.019,57,8.687C57.444,8.019,58.019,7.444,58.687,7    C58.019,6.556,57.444,5.981,57,5.313C56.556,5.981,55.981,6.556,55.313,7z"/>
	</g>
</g>
</svg>
